<?xml version="1.0" encoding="utf-8"?>
<!-- Generator: Adobe Illustrator 25.4.1, SVG Export Plug-In . SVG Version: 6.00 Build 0)  -->
<svg version="1.1" id="バック" xmlns="http://www.w3.org/2000/svg" xmlns:xlink="http://www.w3.org/1999/xlink" x="0px" y="0px"
	 viewBox="0 0 100 100" style="enable-background:new 0 0 100 100;" xml:space="preserve">
<g>
	<path d="M0,0v100h100V0H0z M94.2,94.2H5.8V5.8h88.4V94.2z"/>
	<g>
		<path d="M28.8,17.1c2.1,0,3.8,1.7,3.8,3.8s-1.7,3.8-3.8,3.8S25,23,25,20.9C25,18.9,26.7,17.1,28.8,17.1z"/>
		<path d="M45.9,28.7c-1.1,0.6-1.7,0.8-2.9,0.9h-3.8l0,0h-2l0,0l0,0c-0.5,0-1-0.2-1.4-0.5s-0.6-0.8-0.6-1.4c0-0.5,0.2-1,0.6-1.4
			c0.1-0.1,0.3-0.2,0.8-0.3h6.2l0,0h0.1c3,0,5.5-2.3,5.5-5.1s-2.5-5.1-5.5-5.1h-0.1l0,0H37c-0.3-0.1-0.5-0.2-0.7-0.4
			c-0.4-0.3-0.6-0.8-0.6-1.4c0-0.5,0.2-1,0.6-1.4l0,0H43c1.2,0.1,1.9,0.4,2.9,0.9c1.2,0.6,1.9,1.6,2.4,2.5v-3.4v-0.1v-3H9.4v3.2v0.1
			v3.4c0.4-0.8,1.2-1.8,2.4-2.5c1.1-0.6,1.7-0.8,2.9-0.9h6.7l0,0c0.4,0.3,0.6,0.8,0.6,1.4c0,0.5-0.2,1-0.6,1.4
			c-0.2,0.2-0.4,0.3-0.7,0.4h-5.9l0,0h-0.1c-3,0-5.5,2.3-5.5,5.1s2.5,5.1,5.5,5.1h0.1l0,0H21c0.5,0,0.6,0.2,0.8,0.3
			c0.4,0.3,0.6,0.8,0.6,1.4c0,0.5-0.2,1-0.6,1.4c-0.4,0.3-0.8,0.5-1.4,0.5l0,0l0,0h-2l0,0h-3.8c-1.2-0.1-1.9-0.4-2.9-0.9
			c-1.2-0.6-1.9-1.6-2.4-2.5v3.4v0.1v3.6h38.9v-3.6v-0.1v-3.4C47.8,27.1,47.1,28,45.9,28.7z M32,29.6h-6.3c0.8-0.2,1.3-0.9,1.5-1.6
			c0.2-1-0.1-1.8-0.6-2.1c-0.6-0.4-0.9-0.5-2.1-0.5h-2.1l0,0l0,0c-1.2,0-3-0.4-3.8-1.2c-1-0.8-1.6-2-1.6-3.2c0-1.3,0.6-2.4,1.5-3.2
			c0.8-0.7,2.6-1.2,3.8-1.2l0,0l0,0h2.8c1.2,0,1.8-0.5,2.1-0.8c0.3-0.4,0.6-1,0.5-1.7c-0.1-0.8-0.7-1.2-1.4-1.4h5.1
			c-0.5,0.3-0.9,0.7-1.1,1.4s0.1,1.4,0.4,1.8s0.9,0.8,1.8,0.8h2.9l0,0l0,0c1.2,0,2.9,0.4,3.8,1.2c0.9,0.8,1.5,1.9,1.5,3.2
			c0,1.2-0.6,2.4-1.5,3.2c-0.8,0.7-2.5,1.2-3.8,1.2l0,0l0,0h-2.3c-0.7,0-1.6,0.2-2.1,0.7s-0.7,1.4-0.5,2.2
			C30.6,28.8,31.2,29.4,32,29.6z"/>
		<path d="M47.4,36.6c-1-1-2-1.6-4-1.6h-3.8c1.3,0.2,1.7,0.4,2.2,0.8c0.7,0.6,1,1.1,1,2.3V42c0,1.6-1.2,1.8-2.9,1.8h-2.3
			c0.1-0.4,0.3-0.7,0.4-1c0.2-0.5,0.5-1,1.1-1.6s1-1.4,1-2.3c0-1.7-1.4-3-3-3c-1.7,0-3,1.4-3,3c0,0.8,0.3,1.5,0.8,2.1
			c0.5,0.5,0.9,0.9,1.3,1.6c0.2,0.4,0.3,0.8,0.4,1.2h-6.5c0.1-0.3,0.2-0.6,0.3-0.9c0.2-0.5,0.5-1,1.1-1.6s1-1.4,1-2.3
			c0-1.7-1.4-3-3-3c-1.7,0-3,1.4-3,3c0,0.8,0.3,1.5,0.8,2.1c0.5,0.4,0.9,0.9,1.3,1.6c0.1,0.3,0.3,0.7,0.4,1h-2.7
			c-0.6,0-1.1-0.3-1.4-0.6c-0.4-0.4-0.4-0.7-0.5-1.4v-3.2c0,0,0-1.1-0.8-2.1c-0.9-1-2-1-2-1h-12v13H17c0,0-0.8,0-1.4-1
			S15,45.2,15,45.2V40v-3.9c1.1,0,3,0,3.4,0.8c0.3,0.6,0.5,2.7,0.5,2.7v5c0,0,0,1.6,0.9,2.6c1,1.1,2.5,1,2.5,1h26.3v-4.6v-0.1v-4.2
			C48.3,38.3,48.2,37.4,47.4,36.6z"/>
	</g>
	<path d="M57.9,45.3c-0.7-1.2-1.7-3-1.7-6.3V21.9c0.1-1.7,0.2-3.8,1.4-5c0.9-0.9,2.4-0.9,4.2-1.1h23.8v25.6c-0.3,0-0.7,0-1.1,0
		c-0.6,0-1.4-0.3-1.9-1c-0.2-0.3-0.5-0.9-0.5-1.8v-16c-0.2-1.7-1.2-2.9-1.9-3.3c-1.1-0.6-2.5-0.6-3.1-0.6c-1.2,0-2.1,0.5-2.6,1.1
		c-0.7,0.7-1,1.6-1.2,2.7v0.1h-7.1c-1.4-0.1-2.1-0.6-2.1-1.8c0-0.7,0.4-1.3,1-1.7c0.2-0.1,0.5-0.3,1.3-0.5h-3
		c-1.4,0-2.7,0.3-3.4,0.9c-0.6,0.5-1.3,1.2-1.3,2.7v2.7c0.1,1.5,0.8,2.1,1.4,2.6c0.6,0.5,1.9,0.8,2.7,0.9h10.5v2.4
		c0,0.7-0.4,1.2-0.9,1.6s-1.3,0.4-1.7,0.4h-8.6c-0.7,0-1.5-0.2-2-0.6c-0.4-0.3-0.8-0.6-1.1-1.2v1.8v5.4V40c0.5-0.6,0.7-0.9,1.1-1.2
		c0.5-0.4,1.3-0.6,2-0.6h8.6c0.7,0.1,1.3,0.1,1.8,0.5c0.4,0.3,0.7,0.9,0.8,1.2v1.2c-0.2,0.5-0.5,0.9-1,1.4c-0.7,0.7-1.2,1.5-1.2,2.6
		c0,1.9,1.5,3.4,3.4,3.4s3.4-1.5,3.4-3.4c0-0.9-0.4-1.7-0.9-2.3c-0.5-0.5-1.1-1-1.4-1.8c-0.1-0.2-0.2-0.4-0.2-0.5v-12
		c0.1-1,0.4-1.6,0.6-1.9c0.3-0.4,1.1-0.9,1.9-0.9c0.6,0,1.4,0.2,1.9,0.9c0.2,0.3,0.3,0.7,0.4,1.2v16.7c0.2,1.8,1.3,2.8,2.1,3.3
		c1.2,0.7,2.4,0.6,3,0.6c0.1,0,0.3,0,0.4,0l0,0H91V9.5H51.9v38.9H62C60.2,47.6,58.8,46.8,57.9,45.3z"/>
	<g>
		<path d="M71.2,82.9c-2.1,0-3.8-1.7-3.8-3.8c0-2.1,1.7-3.8,3.8-3.8c2.1,0,3.8,1.7,3.8,3.8C75.1,81.1,73.4,82.9,71.2,82.9z"/>
		<path d="M54.1,71.3c1.1-0.6,1.7-0.8,2.9-0.9h3.8l0,0h2l0,0l0,0c0.5,0,1,0.2,1.4,0.5c0.4,0.3,0.6,0.8,0.6,1.4c0,0.5-0.2,1-0.6,1.4
			c-0.1,0.1-0.3,0.2-0.8,0.3h-6.2l0,0h-0.1c-3,0-5.5,2.3-5.5,5.1c0,2.8,2.5,5.1,5.5,5.1h0.1l0,0H63c0.3,0.1,0.5,0.2,0.7,0.4
			c0.4,0.3,0.6,0.8,0.6,1.4c0,0.5-0.2,1-0.6,1.4l0,0H57c-1.2-0.1-1.9-0.4-2.9-0.9c-1.2-0.6-1.9-1.6-2.4-2.5v3.4v0.1v3.2h38.9v-3.2
			v-0.1V84c-0.4,0.8-1.2,1.8-2.4,2.5c-1.1,0.6-1.7,0.8-2.9,0.9h-6.7l0,0C78.2,87.1,78,86.6,78,86c0-0.5,0.2-1,0.6-1.4
			c0.2-0.2,0.4-0.3,0.7-0.4h5.9l0,0h0.1c3,0,5.5-2.3,5.5-5.1c0-2.8-2.5-5.1-5.5-5.1h-0.1l0,0H79c-0.5,0-0.6-0.2-0.8-0.3
			c-0.4-0.3-0.6-0.8-0.6-1.4c0-0.5,0.2-1,0.6-1.4c0.4-0.3,0.8-0.5,1.4-0.5l0,0l0,0h2l0,0h3.8c1.2,0.1,1.9,0.4,2.9,0.9
			c1.2,0.6,1.9,1.6,2.4,2.5v-3.4v-0.1v-3.6H51.8v3.6v0.1v3.4C52.2,72.9,53,72,54.1,71.3z M68.1,70.4h6.3c-0.8,0.2-1.3,0.9-1.5,1.6
			c-0.2,1,0.1,1.8,0.6,2.1c0.6,0.4,0.9,0.5,2.1,0.5h2.1l0,0l0,0c1.2,0,3,0.4,3.8,1.2c0.9,0.8,1.5,1.9,1.5,3.2c0,1.3-0.6,2.4-1.5,3.2
			c-0.8,0.7-2.6,1.2-3.8,1.2l0,0l0,0h-2.8c-1.2,0-1.8,0.5-2.1,0.8c-0.3,0.4-0.6,1-0.5,1.7c0.1,0.8,0.7,1.2,1.4,1.4h-5.1
			c0.5-0.3,0.9-0.7,1.1-1.4c0.2-0.7-0.1-1.4-0.4-1.8s-0.9-0.8-1.8-0.8h-2.9l0,0l0,0c-1.2,0-2.9-0.4-3.8-1.2
			c-0.9-0.8-1.5-1.9-1.5-3.2c0-1.2,0.6-2.4,1.5-3.2c0.8-0.7,2.5-1.2,3.8-1.2l0,0l0,0h2.3c0.7,0,1.6-0.2,2.1-0.7s0.7-1.4,0.5-2.2
			C69.4,71.2,68.8,70.6,68.1,70.4z"/>
		<path d="M52.6,63.4c1,1,2,1.6,4,1.6h3.8c-1.3-0.2-1.7-0.4-2.2-0.8c-0.7-0.6-1-1.1-1-2.3V58c0-1.6,1.2-1.8,2.9-1.8h2.3
			c-0.1,0.4-0.3,0.7-0.4,1c-0.2,0.5-0.5,1-1.1,1.6s-1,1.4-1,2.3c0,1.7,1.4,3,3,3c1.7,0,3-1.4,3-3c0-0.8-0.3-1.5-0.8-2.1
			c-0.5-0.5-0.9-0.9-1.3-1.6c-0.2-0.4-0.3-0.8-0.4-1.2H70c-0.1,0.3-0.2,0.6-0.3,0.9c-0.2,0.5-0.5,1-1.1,1.6s-1,1.4-1,2.3
			c0,1.7,1.4,3,3,3c1.7,0,3-1.4,3-3c0-0.8-0.3-1.5-0.8-2.1c-0.5-0.4-0.9-0.9-1.3-1.6c-0.1-0.3-0.3-0.7-0.4-1h2.7
			c0.6,0,1.1,0.3,1.4,0.6c0.4,0.4,0.4,0.7,0.5,1.4v3.2c0,0,0,1.1,0.8,2.1c0.9,1,2,1,2,1h12v-13h-7.4c0,0,0.8,0,1.4,1
			s0.6,2.2,0.6,2.2V60v3.9c-1.1,0-3,0-3.4-0.8c-0.3-0.6-0.5-2.7-0.5-2.7v-5c0,0,0-1.6-0.9-2.6c-1-1.1-2.5-1-2.5-1H51.6v4.6v0.1v4.2
			C51.7,61.7,51.9,62.6,52.6,63.4z"/>
	</g>
	<path d="M42.1,54.7c0.7,1.2,1.7,3,1.7,6.3v17.1c-0.1,1.7-0.2,3.8-1.4,5C41.5,84,40,84,38.2,84.2H14.4V58.6c0.3,0,0.7,0,1.1,0
		c0.6,0,1.4,0.3,1.9,1c0.2,0.3,0.5,0.9,0.5,1.8v16c0.2,1.7,1.2,2.9,1.9,3.3c1.1,0.6,2.5,0.6,3.1,0.6c1.2,0,2.1-0.5,2.6-1.1
		c0.7-0.7,1-1.6,1.2-2.7v-0.1h7.1c1.4,0.1,2.1,0.6,2.1,1.8c0,0.7-0.4,1.3-1,1.7c-0.2,0.1-0.5,0.3-1.3,0.5h3c1.4,0,2.7-0.3,3.4-0.9
		c0.6-0.5,1.3-1.2,1.3-2.7v-2.7c-0.1-1.5-0.8-2.1-1.4-2.6c-0.6-0.5-1.9-0.8-2.7-0.9H26.7v-2.4c0-0.7,0.4-1.2,0.9-1.6
		s1.3-0.4,1.7-0.4h8.6c0.7,0,1.5,0.2,2,0.6c0.4,0.3,0.8,0.6,1.1,1.2v-1.8v-5.4V60c-0.5,0.6-0.7,0.9-1.1,1.2c-0.5,0.4-1.3,0.6-2,0.6
		h-8.6c-0.7-0.1-1.3-0.1-1.8-0.5c-0.4-0.3-0.7-0.9-0.8-1.2v-1.2c0.2-0.5,0.5-0.9,1-1.4c0.7-0.7,1.2-1.5,1.2-2.6
		c0-1.9-1.5-3.4-3.4-3.4s-3.4,1.5-3.4,3.4c0,0.9,0.4,1.7,0.9,2.3c0.5,0.5,1.1,1,1.4,1.8c0.1,0.2,0.2,0.4,0.2,0.5v11.9
		c-0.1,1-0.4,1.6-0.6,1.9c-0.3,0.4-1.1,0.9-1.9,0.9c-0.6,0-1.4-0.2-1.9-0.9c-0.2-0.3-0.3-0.7-0.4-1.2V55.5c-0.2-1.8-1.3-2.8-2.1-3.3
		c-1.2-0.7-2.4-0.6-3-0.6c-0.1,0-0.3,0-0.4,0l0,0h-5v38.9h39.1V51.6H38C39.8,52.4,41.2,53.2,42.1,54.7z"/>
</g>
</svg>
