<?xml version="1.0" encoding="utf-8"?>
<!-- Generator: Adobe Illustrator 25.0.1, SVG Export Plug-In . SVG Version: 6.00 Build 0)  -->
<svg version="1.1" id="バック" xmlns="http://www.w3.org/2000/svg" xmlns:xlink="http://www.w3.org/1999/xlink" x="0px" y="0px"
	 viewBox="0 0 100 100" style="enable-background:new 0 0 100 100;" xml:space="preserve">
<style type="text/css">
	.st0{fill:#E50012;}
</style>
<g>
	<path class="st0" d="M0,0l0,100l100,0l0-100L0,0z M94.2,94.2l-88.4,0V5.8h88.4L94.2,94.2z"/>
	<g>
		<path class="st0" d="M28.8,17.1c2.1,0,3.8,1.7,3.8,3.8c0,2.1-1.7,3.8-3.8,3.8c-2.1,0-3.8-1.7-3.8-3.8C25,18.9,26.7,17.1,28.8,17.1
			z"/>
		<path class="st0" d="M45.9,28.7c-1.1,0.6-1.7,0.8-2.9,0.9h-3.8v0h-2v0c0,0,0,0,0,0c-0.5,0-1-0.2-1.4-0.5c-0.4-0.3-0.6-0.8-0.6-1.4
			c0-0.5,0.2-1,0.6-1.4c0.1-0.1,0.3-0.2,0.8-0.3h6.2l0,0c0,0,0.1,0,0.1,0c3,0,5.5-2.3,5.5-5.1c0-2.8-2.5-5.1-5.5-5.1
			c0,0-0.1,0-0.1,0v0h-5.8c-0.3-0.1-0.5-0.2-0.7-0.4c-0.4-0.3-0.6-0.8-0.6-1.4c0-0.5,0.2-1,0.6-1.4c0,0,0,0,0,0H43
			c1.2,0.1,1.9,0.4,2.9,0.9c1.2,0.6,1.9,1.6,2.4,2.5v-3.4l0-0.1V9.5l-38.9,0v3.2v0.1v3.4c0.4-0.8,1.2-1.8,2.4-2.5
			c1.1-0.6,1.7-0.8,2.9-0.9h6.7c0,0,0,0,0,0c0.4,0.3,0.6,0.8,0.6,1.4c0,0.5-0.2,1-0.6,1.4c-0.2,0.2-0.4,0.3-0.7,0.4l-5.9,0v0
			c0,0-0.1,0-0.1,0c-3,0-5.5,2.3-5.5,5.1c0,2.8,2.5,5.1,5.5,5.1c0,0,0.1,0,0.1,0l0,0h6.2c0.5,0,0.6,0.2,0.8,0.3
			c0.4,0.3,0.6,0.8,0.6,1.4c0,0.5-0.2,1-0.6,1.4c-0.4,0.3-0.8,0.5-1.4,0.5c0,0,0,0,0,0l0,0h-2v0h-3.8c-1.2-0.1-1.9-0.4-2.9-0.9
			c-1.2-0.6-1.9-1.6-2.4-2.5l0,3.4l0,0.1v3.6h38.9v-3.6v-0.1v-3.4C47.8,27.1,47.1,28,45.9,28.7z M32,29.6h-6.3
			c0.8-0.2,1.3-0.9,1.5-1.6c0.2-1-0.1-1.8-0.6-2.1c-0.6-0.4-0.9-0.5-2.1-0.5h-2.1v0c0,0,0,0,0,0c-1.2,0-3-0.4-3.8-1.2
			C17.6,23.4,17,22.2,17,21c0-1.3,0.6-2.4,1.5-3.2c0.8-0.7,2.6-1.2,3.8-1.2c0,0,0,0,0,0l0,0l2.8,0c1.2,0,1.8-0.5,2.1-0.8
			c0.3-0.4,0.6-1,0.5-1.7c-0.1-0.8-0.7-1.2-1.4-1.4h5.1c-0.5,0.3-0.9,0.7-1.1,1.4c-0.2,0.7,0.1,1.4,0.4,1.8c0.3,0.4,0.9,0.8,1.8,0.8
			h2.9v0c0,0,0,0,0,0c1.2,0,2.9,0.4,3.8,1.2c0.9,0.8,1.5,1.9,1.5,3.2c0,1.2-0.6,2.4-1.5,3.2c-0.8,0.7-2.5,1.2-3.8,1.2c0,0,0,0,0,0
			l0,0h-2.3c-0.7,0-1.6,0.2-2.1,0.7c-0.5,0.5-0.7,1.4-0.5,2.2C30.6,28.8,31.2,29.4,32,29.6z"/>
		<path class="st0" d="M47.4,36.6c-1-1-2-1.6-4-1.6l-3.8,0c1.3,0.2,1.7,0.4,2.2,0.8c0.7,0.6,1,1.1,1,2.3V42c0,1.6-1.2,1.8-2.9,1.8
			h-2.3c0.1-0.4,0.3-0.7,0.4-1c0.2-0.5,0.5-1,1.1-1.6c0.6-0.6,1-1.4,1-2.3c0-1.7-1.4-3-3-3c-1.7,0-3,1.4-3,3c0,0.8,0.3,1.5,0.8,2.1
			c0.5,0.5,0.9,0.9,1.3,1.6c0.2,0.4,0.3,0.8,0.4,1.2h-6.5c0.1-0.3,0.2-0.6,0.3-0.9c0.2-0.5,0.5-1,1.1-1.6c0.6-0.6,1-1.4,1-2.3
			c0-1.7-1.4-3-3-3c-1.7,0-3,1.4-3,3c0,0.8,0.3,1.5,0.8,2.1c0.5,0.4,0.9,0.9,1.3,1.6c0.1,0.3,0.3,0.7,0.4,1l-2.7,0
			c-0.6,0-1.1-0.3-1.4-0.6c-0.4-0.4-0.4-0.7-0.5-1.4l0-3.2c0,0,0-1.1-0.8-2.1c-0.9-1-2-1-2-1l-12,0v13l7.4,0c0,0-0.8,0-1.4-1
			c-0.6-1-0.6-2.2-0.6-2.2l0-5.2l0-3.9c1.1,0,3,0,3.4,0.8c0.3,0.6,0.5,2.7,0.5,2.7v5c0,0,0,1.6,0.9,2.6c1,1.1,2.5,1,2.5,1h26.3v-4.6
			v-0.1v-4.2C48.3,38.3,48.2,37.4,47.4,36.6z"/>
	</g>
	<path class="st0" d="M57.9,45.3c-0.7-1.2-1.7-3-1.7-6.3l0-17.1c0.1-1.7,0.2-3.8,1.4-5c0.9-0.9,2.4-0.9,4.2-1.1h23.8v25.6
		c-0.3,0-0.7,0-1.1,0c-0.6,0-1.4-0.3-1.9-1c-0.2-0.3-0.5-0.9-0.5-1.8v-16c-0.2-1.7-1.2-2.9-1.9-3.3c-1.1-0.6-2.5-0.6-3.1-0.6
		c-1.2,0-2.1,0.5-2.6,1.1c-0.7,0.7-1,1.6-1.2,2.7v0.1l-7.1,0c-1.4-0.1-2.1-0.6-2.1-1.8c0-0.7,0.4-1.3,1-1.7c0.2-0.1,0.5-0.3,1.3-0.5
		c0,0-3,0-3,0c-1.4,0-2.7,0.3-3.4,0.9c-0.6,0.5-1.3,1.2-1.3,2.7l0,2.7c0.1,1.5,0.8,2.1,1.4,2.6c0.6,0.5,1.9,0.8,2.7,0.9l10.5,0v2.4
		c0,0.7-0.4,1.2-0.9,1.6c-0.5,0.4-1.3,0.4-1.7,0.4l-8.6,0c-0.7,0-1.5-0.2-2-0.6c-0.4-0.3-0.8-0.6-1.1-1.2v1.8v5.4v1.8
		c0.5-0.6,0.7-0.9,1.1-1.2c0.5-0.4,1.3-0.6,2-0.6l8.6,0c0.7,0.1,1.3,0.1,1.8,0.5c0.4,0.3,0.7,0.9,0.8,1.2v1.2
		c-0.2,0.5-0.5,0.9-1,1.4c-0.7,0.7-1.2,1.5-1.2,2.6c0,1.9,1.5,3.4,3.4,3.4c1.9,0,3.4-1.5,3.4-3.4c0-0.9-0.4-1.7-0.9-2.3
		c-0.5-0.5-1.1-1-1.4-1.8c-0.1-0.2-0.2-0.4-0.2-0.5V28.5c0.1-1,0.4-1.6,0.6-1.9c0.3-0.4,1.1-0.9,1.9-0.9c0.6,0,1.4,0.2,1.9,0.9
		c0.2,0.3,0.3,0.7,0.4,1.2v16.7c0.2,1.8,1.3,2.8,2.1,3.3c1.2,0.7,2.4,0.6,3,0.6c0.1,0,0.3,0,0.4,0c0,0,0,0,0,0h5.3V9.5l-39.1,0
		l0,38.9H62C60.2,47.6,58.8,46.8,57.9,45.3z"/>
	<g>
		<path class="st0" d="M71.2,82.9c-2.1,0-3.8-1.7-3.8-3.8c0-2.1,1.7-3.8,3.8-3.8c2.1,0,3.8,1.7,3.8,3.8
			C75.1,81.1,73.4,82.9,71.2,82.9z"/>
		<path class="st0" d="M54.1,71.3c1.1-0.6,1.7-0.8,2.9-0.9h3.8v0h2v0c0,0,0,0,0,0c0.5,0,1,0.2,1.4,0.5c0.4,0.3,0.6,0.8,0.6,1.4
			c0,0.5-0.2,1-0.6,1.4c-0.1,0.1-0.3,0.2-0.8,0.3h-6.2l0,0c0,0-0.1,0-0.1,0c-3,0-5.5,2.3-5.5,5.1c0,2.8,2.5,5.1,5.5,5.1
			c0,0,0.1,0,0.1,0v0h5.8c0.3,0.1,0.5,0.2,0.7,0.4c0.4,0.3,0.6,0.8,0.6,1.4c0,0.5-0.2,1-0.6,1.4c0,0,0,0,0,0h-6.7
			c-1.2-0.1-1.9-0.4-2.9-0.9c-1.2-0.6-1.9-1.6-2.4-2.5v3.4l0,0.1v3.2l38.9,0v-3.2v-0.1v-3.4c-0.4,0.8-1.2,1.8-2.4,2.5
			c-1.1,0.6-1.7,0.8-2.9,0.9h-6.7c0,0,0,0,0,0c-0.4-0.3-0.6-0.8-0.6-1.4c0-0.5,0.2-1,0.6-1.4c0.2-0.2,0.4-0.3,0.7-0.4l5.9,0v0
			c0,0,0.1,0,0.1,0c3,0,5.5-2.3,5.5-5.1c0-2.8-2.5-5.1-5.5-5.1c0,0-0.1,0-0.1,0l0,0H79c-0.5,0-0.6-0.2-0.8-0.3
			c-0.4-0.3-0.6-0.8-0.6-1.4c0-0.5,0.2-1,0.6-1.4c0.4-0.3,0.8-0.5,1.4-0.5c0,0,0,0,0,0l0,0h2v0h3.8c1.2,0.1,1.9,0.4,2.9,0.9
			c1.2,0.6,1.9,1.6,2.4,2.5l0-3.4l0-0.1v-3.6H51.8v3.6v0.1v3.4C52.2,72.9,53,72,54.1,71.3z M68.1,70.4h6.3c-0.8,0.2-1.3,0.9-1.5,1.6
			c-0.2,1,0.1,1.8,0.6,2.1c0.6,0.4,0.9,0.5,2.1,0.5h2.1v0c0,0,0,0,0,0c1.2,0,3,0.4,3.8,1.2c0.9,0.8,1.5,1.9,1.5,3.2
			c0,1.3-0.6,2.4-1.5,3.2c-0.8,0.7-2.6,1.2-3.8,1.2c0,0,0,0,0,0l0,0l-2.8,0c-1.2,0-1.8,0.5-2.1,0.8c-0.3,0.4-0.6,1-0.5,1.7
			c0.1,0.8,0.7,1.2,1.4,1.4h-5.1c0.5-0.3,0.9-0.7,1.1-1.4c0.2-0.7-0.1-1.4-0.4-1.8c-0.3-0.4-0.9-0.8-1.8-0.8h-2.9v0c0,0,0,0,0,0
			c-1.2,0-2.9-0.4-3.8-1.2c-0.9-0.8-1.5-1.9-1.5-3.2c0-1.2,0.6-2.4,1.5-3.2c0.8-0.7,2.5-1.2,3.8-1.2c0,0,0,0,0,0l0,0h2.3
			c0.7,0,1.6-0.2,2.1-0.7c0.5-0.5,0.7-1.4,0.5-2.2C69.4,71.2,68.8,70.6,68.1,70.4z"/>
		<path class="st0" d="M52.6,63.4c1,1,2,1.6,4,1.6l3.8,0c-1.3-0.2-1.7-0.4-2.2-0.8c-0.7-0.6-1-1.1-1-2.3V58c0-1.6,1.2-1.8,2.9-1.8
			h2.3c-0.1,0.4-0.3,0.7-0.4,1c-0.2,0.5-0.5,1-1.1,1.6c-0.6,0.6-1,1.4-1,2.3c0,1.7,1.4,3,3,3c1.7,0,3-1.4,3-3c0-0.8-0.3-1.5-0.8-2.1
			c-0.5-0.5-0.9-0.9-1.3-1.6c-0.2-0.4-0.3-0.8-0.4-1.2H70c-0.1,0.3-0.2,0.6-0.3,0.9c-0.2,0.5-0.5,1-1.1,1.6c-0.6,0.6-1,1.4-1,2.3
			c0,1.7,1.4,3,3,3c1.7,0,3-1.4,3-3c0-0.8-0.3-1.5-0.8-2.1c-0.5-0.4-0.9-0.9-1.3-1.6c-0.1-0.3-0.3-0.7-0.4-1l2.7,0
			c0.6,0,1.1,0.3,1.4,0.6c0.4,0.4,0.4,0.7,0.5,1.4l0,3.2c0,0,0,1.1,0.8,2.1c0.9,1,2,1,2,1l12,0v-13l-7.4,0c0,0,0.8,0,1.4,1
			c0.6,1,0.6,2.2,0.6,2.2l0,5.2l0,3.9c-1.1,0-3,0-3.4-0.8c-0.3-0.6-0.5-2.7-0.5-2.7v-5c0,0,0-1.6-0.9-2.6c-1-1.1-2.5-1-2.5-1H51.6
			v4.6v0.1v4.2C51.7,61.7,51.9,62.6,52.6,63.4z"/>
	</g>
	<path class="st0" d="M42.1,54.7c0.7,1.2,1.7,3,1.7,6.3l0,17.1c-0.1,1.7-0.2,3.8-1.4,5c-0.9,0.9-2.4,0.9-4.2,1.1H14.4V58.6
		c0.3,0,0.7,0,1.1,0c0.6,0,1.4,0.3,1.9,1c0.2,0.3,0.5,0.9,0.5,1.8v16c0.2,1.7,1.2,2.9,1.9,3.3c1.1,0.6,2.5,0.6,3.1,0.6
		c1.2,0,2.1-0.5,2.6-1.1c0.7-0.7,1-1.6,1.2-2.7v-0.1l7.1,0c1.4,0.1,2.1,0.6,2.1,1.8c0,0.7-0.4,1.3-1,1.7c-0.2,0.1-0.5,0.3-1.3,0.5
		c0,0,3,0,3,0c1.4,0,2.7-0.3,3.4-0.9c0.6-0.5,1.3-1.2,1.3-2.7l0-2.7c-0.1-1.5-0.8-2.1-1.4-2.6c-0.6-0.5-1.9-0.8-2.7-0.9l-10.5,0
		v-2.4c0-0.7,0.4-1.2,0.9-1.6c0.5-0.4,1.3-0.4,1.7-0.4l8.6,0c0.7,0,1.5,0.2,2,0.6c0.4,0.3,0.8,0.6,1.1,1.2v-1.8v-5.4v-1.8
		c-0.5,0.6-0.7,0.9-1.1,1.2c-0.5,0.4-1.3,0.6-2,0.6l-8.6,0c-0.7-0.1-1.3-0.1-1.8-0.5c-0.4-0.3-0.7-0.9-0.8-1.2v-1.2
		c0.2-0.5,0.5-0.9,1-1.4c0.7-0.7,1.2-1.5,1.2-2.6c0-1.9-1.5-3.4-3.4-3.4c-1.9,0-3.4,1.5-3.4,3.4c0,0.9,0.4,1.7,0.9,2.3
		c0.5,0.5,1.1,1,1.4,1.8c0.1,0.2,0.2,0.4,0.2,0.5v11.9c-0.1,1-0.4,1.6-0.6,1.9c-0.3,0.4-1.1,0.9-1.9,0.9c-0.6,0-1.4-0.2-1.9-0.9
		c-0.2-0.3-0.3-0.7-0.4-1.2V55.5c-0.2-1.8-1.3-2.8-2.1-3.3c-1.2-0.7-2.4-0.6-3-0.6c-0.1,0-0.3,0-0.4,0c0,0,0,0,0,0H9.3v38.9l39.1,0
		l0-38.9H38C39.8,52.4,41.2,53.2,42.1,54.7z"/>
</g>
</svg>
