<?xml version="1.0" encoding="utf-8"?>
<!-- Generator: Adobe Illustrator 25.0.1, SVG Export Plug-In . SVG Version: 6.00 Build 0)  -->
<svg version="1.1" id="レイヤー_1" xmlns="http://www.w3.org/2000/svg" xmlns:xlink="http://www.w3.org/1999/xlink" x="0px"
	 y="0px" viewBox="0 0 1000 700" style="enable-background:new 0 0 1000 700;" xml:space="preserve">
<style type="text/css">
	.st0{fill:#333333;}
	.st1{enable-background:new    ;}
	.st2{fill:#4D4D4D;}
</style>
<rect id="背景" class="st0" width="1000" height="700"/>
<g>
	<g class="st1">
		<path class="st2" d="M421.7,447.9c-1.8,0.1-3,0.4-3.8,0.7c-1,0.5-1.6,1.7-1.6,3.6v33.5H414l-24.8-34.9h-0.2v28.4
			c0,1.9,0.5,3.1,1.4,3.6c0.8,0.4,2.1,0.6,4,0.8v1.6h-13.6v-1.6c1.8-0.1,3.1-0.3,3.9-0.6c1.1-0.5,1.6-1.7,1.6-3.7v-26.9
			c0-2-0.5-3.2-1.5-3.7c-0.6-0.4-2.1-0.6-4.3-0.8v-1.5h9.9l23,32.3h0.2v-26.5c0-1.8-0.5-3-1.5-3.5c-0.8-0.4-2.2-0.7-4.2-0.8v-1.5
			h13.6V447.9z"/>
		<path class="st2" d="M439.6,457.6c3.6,0,6.6,1.2,9.1,3.7c2.6,2.7,4,6.1,4,10.4c0,4.5-1.3,8.1-4,10.7c-2.5,2.4-5.5,3.7-9.1,3.7
			c-3.7,0-6.7-1.2-9.1-3.7c-2.6-2.6-3.9-6.1-3.9-10.6c0-4.4,1.3-7.9,4-10.6C433,458.8,436,457.6,439.6,457.6z M439.6,459.5
			c-2.7,0-4.9,1.1-6.6,3.4c-1.6,2.3-2.4,5.2-2.4,8.9c0,3.8,0.9,6.9,2.6,9.1c1.6,2,3.7,3.1,6.3,3.1c3.2,0,5.6-1.4,7.2-4.3
			c1.2-2.3,1.8-4.9,1.8-7.8c0-3.9-0.9-7-2.6-9.2C444.3,460.6,442.2,459.5,439.6,459.5z"/>
		<path class="st2" d="M481.7,463.1c2.3-3.5,5.3-5.3,9.1-5.3c3.1,0,5.7,1.1,7.9,3.2c2.5,2.6,3.8,6.1,3.8,10.7c0,4.5-1.3,8-3.9,10.6
			c-2.2,2.3-4.8,3.4-7.8,3.4c-3.9,0-6.9-1.6-9-4.7v9.2c0,1.5,0.4,2.5,1.2,2.9c0.6,0.4,1.9,0.6,3.8,0.6v1.5h-13.5v-1.5
			c1.5-0.1,2.7-0.2,3.4-0.5c1-0.3,1.5-1.3,1.5-3v-26.4c0-1.8-0.4-2.8-1.3-3.1c-0.6-0.2-1.8-0.3-3.5-0.3v-1.7c3.2-0.1,6-0.4,8.3-0.9
			V463.1z M481.8,468.1v8.6c0,1.7,1.1,3.4,3.3,5c1.6,1.2,3.4,1.8,5.3,1.8c2.8,0,5-1.3,6.6-4c1.2-2.1,1.8-4.6,1.8-7.7
			c0-4.2-1.1-7.3-3.2-9.4c-1.5-1.5-3.3-2.3-5.3-2.3c-2.7,0-4.9,1.2-6.6,3.7C482.4,465.4,481.8,466.8,481.8,468.1z"/>
		<path class="st2" d="M538.5,485.2h-13.2v-1.6c1.1,0,2.1-0.1,3-0.3c1.2-0.3,1.8-1.4,1.8-3.2v-11.5c0-5.5-2-8.3-6.1-8.3
			c-4,0-6.8,2.2-8.4,6.6v13.3c0,1.6,0.4,2.7,1.3,3c0.8,0.3,2,0.5,3.5,0.5v1.6h-13.2v-1.6c1.3,0,2.3-0.1,3.1-0.3
			c1.2-0.3,1.8-1.4,1.8-3.2v-28.7c0-1.7-0.4-2.7-1.3-3c-0.5-0.2-1.7-0.4-3.5-0.4v-1.7c3-0.1,5.8-0.4,8.4-0.9v17.7
			c2.4-3.5,5.4-5.3,9.2-5.3c6,0,9,3.3,9,9.9v12.3c0,1.6,0.4,2.7,1.3,3c0.8,0.3,2,0.5,3.5,0.5V485.2z"/>
		<path class="st2" d="M555.7,457.6c3.6,0,6.6,1.2,9.1,3.7c2.6,2.7,4,6.1,4,10.4c0,4.5-1.3,8.1-4,10.7c-2.5,2.4-5.5,3.7-9.1,3.7
			c-3.7,0-6.7-1.2-9.1-3.7c-2.6-2.6-3.9-6.1-3.9-10.6c0-4.4,1.3-7.9,4-10.6C549,458.8,552.1,457.6,555.7,457.6z M555.7,459.5
			c-2.7,0-4.9,1.1-6.6,3.4c-1.6,2.3-2.4,5.2-2.4,8.9c0,3.8,0.9,6.9,2.6,9.1c1.6,2,3.7,3.1,6.3,3.1c3.2,0,5.6-1.4,7.2-4.3
			c1.2-2.3,1.8-4.9,1.8-7.8c0-3.9-0.9-7-2.6-9.2C560.4,460.6,558.2,459.5,555.7,459.5z"/>
		<path class="st2" d="M590.2,482.7c-1.9,2.5-4,3.8-6.6,3.8c-4,0-6.1-2.3-6.1-7v-18.7h-4.7V459c2.3-0.1,3.8-0.8,4.8-2.1
			c0.8-1.1,1.4-3.1,1.9-5.7h1.6v7.5h8.2v2h-8.2v17.7c0,3.7,1.1,5.6,3.4,5.6c1.6,0,3.1-0.8,4.4-2.5L590.2,482.7z"/>
		<path class="st2" d="M606.3,457.6c3.6,0,6.6,1.2,9.1,3.7c2.6,2.7,4,6.1,4,10.4c0,4.5-1.3,8.1-4,10.7c-2.5,2.4-5.5,3.7-9.1,3.7
			c-3.7,0-6.7-1.2-9.1-3.7c-2.6-2.6-3.9-6.1-3.9-10.6c0-4.4,1.3-7.9,4-10.6C599.7,458.8,602.7,457.6,606.3,457.6z M606.3,459.5
			c-2.7,0-4.9,1.1-6.6,3.4c-1.6,2.3-2.4,5.2-2.4,8.9c0,3.8,0.9,6.9,2.6,9.1c1.6,2,3.7,3.1,6.3,3.1c3.2,0,5.6-1.4,7.2-4.3
			c1.2-2.3,1.8-4.9,1.8-7.8c0-3.9-0.9-7-2.6-9.2C611,460.6,608.9,459.5,606.3,459.5z"/>
	</g>
	<g>
		<path class="st2" d="M598,400.8v-196H402v196H598z M413.3,216.2h173.3v173.3H413.3V216.2z"/>
		<g>
			<g>
				<path class="st2" d="M541.5,367.2c-4.2,0-7.5-3.4-7.5-7.5c0-4.2,3.4-7.5,7.5-7.5c4.2,0,7.5,3.4,7.5,7.5
					C549,363.9,545.7,367.2,541.5,367.2z"/>
				<path class="st2" d="M508,344.6c2.1-1.2,3.4-1.6,5.8-1.8h7.5l0,0h3.9l0,0l0,0c1,0,2,0.4,2.7,1c0.8,0.7,1.3,1.6,1.3,2.7
					c0,1.1-0.5,2-1.3,2.7c-0.3,0.2-0.6,0.5-1.5,0.6h-12.1l0,0c-0.1,0-0.1,0-0.2,0c-6,0-10.8,4.5-10.8,10s4.8,10,10.8,10
					c0.1,0,0.1,0,0.2,0l0,0h11.5c0.5,0.2,1,0.4,1.3,0.8c0.8,0.7,1.3,1.6,1.3,2.7c0,1.1-0.5,2-1.3,2.7c0,0,0,0-0.1,0h-13.2
					c-2.3-0.3-3.6-0.7-5.7-1.9c-2.3-1.3-3.8-3.2-4.6-4.8v6.7v0.1v6.3h76.2v-6.3V376v-6.7c-0.9,1.6-2.3,3.5-4.6,4.8
					c-2.1,1.2-3.4,1.6-5.7,1.8h-13.1c0,0,0,0-0.1,0c-0.8-0.7-1.3-1.6-1.3-2.7c0-1.1,0.5-2,1.3-2.7c0.4-0.3,0.9-0.6,1.4-0.8h11.5l0,0
					c0.1,0,0.1,0,0.2,0c6,0,10.8-4.5,10.8-10s-4.8-10-10.8-10c-0.1,0-0.1,0-0.2,0l0,0h-12.2c-0.9-0.1-1.3-0.3-1.5-0.6
					c-0.8-0.7-1.3-1.6-1.3-2.7c0-1.1,0.5-2,1.3-2.7c0.7-0.6,1.7-1,2.7-1l0,0l0,0h3.9l0,0h7.4c2.3,0.3,3.6,0.7,5.7,1.9
					c2.3,1.3,3.8,3.2,4.6,4.8v-6.6v-0.1v-7.9h-76.2v7.9v0.1v6.6C504.2,347.8,505.7,345.9,508,344.6z M535.3,342.8h12.3
					c-1.3,0.8-3.8,2.1-3.8,3.7c0,1.3,0.5,2.5,1.5,3.4c0.8,0.7,2.5,1.3,3.7,1.4h5.3l0,0l0,0c2.4,0,4.6,0.9,6.2,2.3
					c1.8,1.5,2.9,3.8,2.9,6.2c0,2.5-1.1,4.7-2.9,6.2c-1.6,1.4-3.8,2.3-6.2,2.3l0,0l0,0h-6.2c-1.3,0.1-2.6,1-3.1,1.5
					c-0.6,0.6-1.2,2-1.2,3.4c0,1,2,2,2.7,2.7h-10c0.7-0.7,2.7-1.7,2.7-2.7c0-1.4-0.6-2.8-1.2-3.4c-0.5-0.5-1.8-1.4-3.1-1.5h-6.2l0,0
					l0,0c-2.4,0-4.6-0.9-6.2-2.3c-1.8-1.5-2.9-3.7-2.9-6.2c0-2.4,1.1-4.6,2.9-6.2c1.6-1.4,3.8-2.3,6.2-2.3l0,0l0,0h5.3
					c1.2-0.1,2.9-0.7,3.7-1.4c1-0.8,1.5-2.1,1.5-3.4C539.2,344.9,536.7,343.6,535.3,342.8z"/>
				<path class="st2" d="M505,329.1c1.9,1.9,4,3.1,7.8,3.1H523c-2.5-0.4-3.4-1.2-4.4-1.8c-1-0.6-2.3-1.7-2.5-3.4v-8.4
					c0.5-2.7,3.5-3.2,6.3-3.5h2.9c-0.2,0.8-0.5,1.5-0.8,2c-0.5,1-1,2-2.1,3c-1.2,1.2-2,2.7-2,4.5c0,3.3,2.7,6,6,6s6-2.7,6-6
					c0-1.6-0.6-3-1.6-4.1c-0.9-0.9-1.8-1.7-2.5-3.2c-0.3-0.7-0.6-1.5-0.8-2.3h11.2c-0.2,0.6-0.5,1.2-0.7,1.7c-0.5,1-1,2-2.1,3
					c-1.2,1.2-2,2.7-2,4.5c0,3.3,2.7,6,6,6s6-2.7,6-6c0-1.6-0.6-3-1.6-4.1c-0.9-0.9-1.8-1.7-2.5-3.2c-0.3-0.6-0.5-1.3-0.7-2h4.2
					c1.2,0,2.3,0.5,2.8,1.1c0.8,0.8,0.8,1.4,0.9,2.7v6.2c0,0,0,2.3,1.6,4.2c1.7,2,4,2,4,2h25.1v-25.5l-15.3-0.1c0,0,1.7,0.1,2.8,2
					c1.2,1.9,1.1,4.2,1.1,4.2v10.1v7.6c-1.6,0-3.9-0.2-4.8-1c-1-0.8-0.9-5.9-0.9-5.9v-9.8c0,0,0-3.1-1.8-5.1c-2-2.2-4.8-2-4.8-2
					h-52.7v9.1v0.2v8.2C503.3,325.7,503.5,327.6,505,329.1z"/>
			</g>
			<path class="st2" d="M482.2,311.8c1.8,2.1,4.1,6.1,4.2,12.6V357c-0.1,3.3-0.4,7-2.7,9.2c-1.8,1.7-3.3,1.8-6.9,2.1h-46v-48.2
				c0.5-0.2,1.1-0.4,1.8-0.4c1.2,0,2.5,0.6,3.4,2c0.4,0.6,0.9,1.4,1.1,2.5v32.4c0.4,3.4,2.4,5.6,3.8,6.4c2.1,1.2,4.8,1.2,6.1,1.2
				c2.4-0.1,4.1-1.1,5.1-2.1c1.3-1.4,2-2.7,2.4-5v-0.2h13.9c2.7,0.1,3.9,1.6,3.8,3.6c-0.1,1.4-0.6,2.2-1.7,2.8c-0.4,0.2-1,0.5-2.6,1
				c0,0,5.8,0,5.9,0c2.7,0,5.2-0.5,6.7-1.8c1.2-1,2.2-1.8,2.6-4.7v-6.3c-0.3-3-1.5-4.2-2.7-5.2s-3.8-1.6-5.3-1.7h-20.6v-3.4
				c0.3-0.7,0.9-2,1.9-2.7s2.6-0.8,3.2-0.9h16.9c1.3,0.1,2.8,0.4,3.8,1.2c0.8,0.7,1.5,1.1,2.2,2.4v-3.6v-13.5v-3.6
				c-0.9,1.3-1.4,1.7-2.2,2.3c-1,0.8-2.5,1.1-3.8,1.2h-16.9c-1.4-0.1-2.5-0.3-3.5-1c-0.9-0.6-1.4-1.7-1.6-2.4V320
				c0.5-0.9,1.1-1.8,2-2.7c1.3-1.3,2.3-3,2.3-5c0-3.7-3-6.7-6.7-6.7s-6.7,3-6.7,6.7c0,1.8,0.7,3.4,1.8,4.6c1,1,2.1,1.9,2.8,3.6
				c0.1,0.3,0.3,0.7,0.4,1.1V345c-0.2,2-0.7,3.1-1.2,3.8c-0.6,0.7-2.1,1.7-3.6,1.7c-1.2,0-2.8-0.4-3.7-1.8c-0.4-0.6-0.6-1.4-0.8-2.4
				v-32.7c-0.4-3.4-2.6-5.6-4-6.4c-2.4-1.3-4.6-1.2-5.9-1.2c-0.3,0-0.5,0-0.7,0l0,0h-10.3v76.2h76.7V306h-21.8
				C477.2,307.3,479.8,309,482.2,311.8z"/>
			<g>
				<path class="st2" d="M458.5,238.4c4.2,0,7.5,3.4,7.5,7.5c0,4.2-3.4,7.5-7.5,7.5c-4.2,0-7.5-3.4-7.5-7.5S454.3,238.4,458.5,238.4
					z"/>
				<path class="st2" d="M492,261c-2.1,1.2-3.4,1.6-5.8,1.8h-7.5l0,0h-3.9l0,0l0,0c-1,0-2-0.4-2.7-1c-0.8-0.7-1.3-1.6-1.3-2.7
					c0-1.1,0.5-2,1.3-2.7c0.3-0.2,0.6-0.5,1.5-0.6h12.2l0,0c0.1,0,0.1,0,0.2,0c6,0,10.8-4.5,10.8-10s-4.8-10-10.8-10
					c-0.1,0-0.1,0-0.2,0l0,0h-11.5c-0.5-0.2-1-0.4-1.3-0.8c-0.8-0.7-1.3-1.6-1.3-2.7c0-1.1,0.5-2,1.3-2.7c0,0,0,0,0.1,0h13.2
					c2.3,0.3,3.6,0.7,5.7,1.8c2.3,1.3,3.8,3.2,4.6,4.8v-6.7v-0.1v-6.3h-76.2v6.3v0.1v6.7c0.9-1.6,2.3-3.5,4.6-4.8
					c2.1-1.1,3.4-1.5,5.7-1.8h13.1c0,0,0,0,0.1,0c0.8,0.7,1.3,1.6,1.3,2.7c0,1.1-0.5,2-1.3,2.7c-0.4,0.3-0.8,0.6-1.4,0.8H431l0,0
					c-0.1,0-0.1,0-0.2,0c-6,0-10.8,4.5-10.8,10s4.8,10,10.8,10c0.1,0,0.1,0,0.2,0l0,0h12.2c0.9,0.1,1.3,0.3,1.5,0.6
					c0.8,0.7,1.3,1.6,1.3,2.7c0,1.1-0.5,2-1.3,2.7c-0.7,0.6-1.7,1-2.7,1l0,0l0,0h-3.9l0,0h-7.4c-2.3-0.3-3.6-0.7-5.7-1.8
					c-2.3-1.3-3.8-3.2-4.6-4.8v6.7v0.1v7.9h76.2V263v-0.1v-6.6C495.8,257.9,494.3,259.8,492,261z M464.6,262.9h-12.3
					c1.3-0.8,3.8-2.1,3.8-3.7c0-1.3-0.5-2.5-1.5-3.4c-0.8-0.7-2.5-1.3-3.7-1.4h-5.3l0,0l0,0c-2.4,0-4.6-0.9-6.2-2.3
					c-1.8-1.5-2.9-3.7-2.9-6.2s1.1-4.7,2.9-6.2c1.6-1.4,3.8-2.3,6.2-2.3l0,0l0,0h6.2c1.3-0.1,2.6-1,3.1-1.5c0.6-0.6,1.2-2,1.2-3.4
					c0-1-2-2-2.7-2.7h10c-0.7,0.7-2.7,1.7-2.7,2.7c0,1.4,0.6,2.8,1.2,3.4c0.5,0.5,1.8,1.4,3.1,1.5h6.2l0,0l0,0
					c2.4,0,4.6,0.9,6.2,2.3c1.8,1.5,2.9,3.7,2.9,6.2c0,2.4-1.1,4.6-2.9,6.2c-1.6,1.4-3.8,2.3-6.2,2.3l0,0l0,0h-5.3
					c-1.2,0.1-2.9,0.7-3.7,1.4c-1,0.9-1.5,2.1-1.5,3.4C460.8,260.7,463.3,262.1,464.6,262.9z"/>
				<path class="st2" d="M495,276.5c-1.9-1.9-4-3.1-7.8-3.1H477c2.5,0.4,3.4,1.2,4.4,1.8s2.3,1.7,2.5,3.4v8.4
					c-0.5,2.7-3.5,3.2-6.3,3.5h-2.9c0.2-0.8,0.5-1.5,0.8-2c0.5-1,1-2,2.1-3c1.2-1.2,2-2.7,2-4.5c0-3.3-2.7-6-6-6s-6,2.7-6,6
					c0,1.6,0.6,3,1.6,4.1c0.9,0.9,1.8,1.7,2.5,3.2c0.3,0.7,0.6,1.5,0.8,2.3h-11.2c0.2-0.6,0.4-1.2,0.7-1.7c0.4-1,1-2,2.1-3
					c1.2-1.2,2-2.7,2-4.5c0-3.3-2.7-6-6-6s-6,2.7-6,6c0,1.6,0.6,3,1.6,4.1c0.9,0.9,1.8,1.7,2.5,3.2c0.3,0.6,0.5,1.3,0.7,2h-4.2
					c-1.2,0-2.3-0.5-2.8-1.1c-0.8-0.8-0.8-1.4-0.9-2.6v-6.2c0,0,0-2.3-1.6-4.2c-1.7-2-4-2-4-2h-25.1v25.5l15.3,0.1
					c0,0-1.6-0.1-2.8-2c-1.2-1.9-1.1-4.2-1.1-4.2v-10.1v-7.6c1.6,0,3.9,0.2,4.8,1c1,0.8,0.9,5.9,0.9,5.9v9.8c0,0,0,3.1,1.8,5.1
					c2,2.2,4.8,2,4.8,2h52.7V291v-0.2v-8.2C496.7,279.9,496.5,278.1,495,276.5z"/>
			</g>
			<path class="st2" d="M517.8,293.8c-1.8-2.1-4.1-6.1-4.2-12.6v-32.6c0.1-3.3,0.4-7,2.7-9.2c1.8-1.7,3.3-1.8,6.9-2.1h46v48.3
				c-0.5,0.2-1.1,0.4-1.8,0.4c-1.2,0-2.5-0.6-3.4-2c-0.4-0.6-0.9-1.4-1.1-2.5v-32.4c-0.4-3.4-2.4-5.6-3.8-6.4
				c-2.1-1.2-4.8-1.2-6.1-1.2c-2.4,0.1-4.1,1.1-5.1,2.1c-1.3,1.4-2,2.7-2.4,5v0.2h-13.9c-2.7-0.1-3.9-1.6-3.8-3.6
				c0.1-1.4,0.6-2.2,1.7-2.8c0.4-0.2,1-0.5,2.6-1c0,0-5.8,0-5.9,0c-2.7,0-5.2,0.5-6.7,1.8c-1.2,1-2.2,1.8-2.6,4.7v6.3
				c0.3,3,1.5,4.2,2.7,5.2s3.8,1.6,5.3,1.7h20.6v3.4c-0.3,0.7-0.9,2-1.9,2.7s-2.6,0.8-3.1,0.9h-16.9c-1.3-0.1-2.8-0.4-3.8-1.2
				c-0.8-0.7-1.5-1.1-2.2-2.4v3.6v13.5v3.6c0.9-1.3,1.4-1.7,2.2-2.3c1-0.8,2.5-1.1,3.8-1.2h16.9c1.4,0.1,2.5,0.3,3.5,1
				c0.9,0.6,1.3,1.7,1.6,2.4v0.6c-0.5,0.9-1.1,1.8-2,2.7c-1.3,1.3-2.3,3-2.3,5c0,3.7,3,6.7,6.7,6.7s6.7-3,6.7-6.7
				c0-1.8-0.7-3.4-1.8-4.6c-1-1-2.1-1.9-2.8-3.6c-0.2-0.3-0.3-0.7-0.4-1.1v-23.4c0.2-2.1,0.7-3.1,1.2-3.8c0.6-0.8,2.1-1.7,3.6-1.7
				c1.2,0,2.8,0.4,3.7,1.8c0.4,0.6,0.6,1.4,0.8,2.4v32.7c0.4,3.4,2.6,5.6,4,6.4c2.4,1.3,4.6,1.2,5.9,1.2c0.3,0,0.5,0,0.7,0l0,0h10.3
				v-76.2h-76.7v76.2H525C522.8,298.4,520.1,296.7,517.8,293.8z"/>
		</g>
	</g>
</g>
</svg>
